<?xml version="1.0" encoding="UTF-8" standalone="no"?>
<svg
   height="24"
   aria-hidden="true"
   viewBox="0 0 12 12"
   version="1.1"
   width="24"
   data-view-component="true"
   class="octicon octicon-mark-github v-align-middle"
   id="svg4"
   sodipodi:docname="Github-edited-color.svg"
   inkscape:version="1.1.1 (3bf5ae0d25, 2021-09-20)"
   xmlns:inkscape="http://www.inkscape.org/namespaces/inkscape"
   xmlns:sodipodi="http://sodipodi.sourceforge.net/DTD/sodipodi-0.dtd"
   xmlns="http://www.w3.org/2000/svg"
   xmlns:svg="http://www.w3.org/2000/svg">
  <defs
     id="defs8" />
  <sodipodi:namedview
     id="namedview6"
     pagecolor="#505050"
     bordercolor="#ffffff"
     borderopacity="1"
     inkscape:pageshadow="0"
     inkscape:pageopacity="0"
     inkscape:pagecheckerboard="1"
     showgrid="false"
     inkscape:zoom="22.46875"
     inkscape:cx="14.642559"
     inkscape:cy="16"
     inkscape:window-width="1920"
     inkscape:window-height="1017"
     inkscape:window-x="-8"
     inkscape:window-y="-8"
     inkscape:window-maximized="1"
     inkscape:current-layer="svg4"
     width="24px" />
  <path
     fill-rule="evenodd"
     d="M 6,1 C 3.2375,1 1,3.2940951 1,6.1264695 1,8.3949323 2.43125,10.31095 4.41875,10.990207 4.66875,11.035067 4.7625,10.88127 4.7625,10.7467 4.7625,10.624947 4.75625,10.221237 4.75625,9.7918952 3.5,10.028995 3.175,9.477899 3.075,9.1895351 3.01875,9.0421491 2.775,8.5871749 2.5625,8.4654213 2.3875,8.3692999 2.1375,8.1322007 2.55625,8.1257926 2.95,8.1193846 3.23125,8.4974617 3.325,8.6512558 3.775,9.4266343 4.49375,9.2087593 4.78125,9.0741895 4.825,8.740969 4.95625,8.5166859 5.1,8.3885242 3.9875,8.2603625 2.825,7.8182045 2.825,5.8573299 c 0,-0.5575036 0.19375,-1.0188858 0.5125,-1.3777387 -0.05,-0.1281617 -0.225,-0.6536248 0.05,-1.3585144 0,0 0.41875,-0.1345698 1.375,0.5254631 0.4,-0.1153455 0.825,-0.1730183 1.25,-0.1730183 0.425,0 0.85,0.057673 1.25,0.1730183 0.95625,-0.666441 1.375,-0.5254631 1.375,-0.5254631 0.275,0.7048896 0.1,1.2303527 0.05,1.3585144 C 9.00625,4.8384441 9.2,5.2934182 9.2,5.8573299 9.2,7.8246126 8.03125,8.2603625 6.91875,8.3885242 7.1,8.5487264 7.25625,8.8563146 7.25625,9.3369211 7.25625,10.022587 7.25,10.573682 7.25,10.7467 c 0,0.13457 0.09375,0.294772 0.34375,0.243507 A 5.008125,5.1348 0 0 0 11,6.1264695 C 11,3.2940951 8.7625,1 6,1 Z"
     id="path2"
     style="fill:#0066b3;fill-opacity:1;stroke-width:1" />
</svg>
