<?xml version="1.0" encoding="UTF-8" standalone="no"?>
<svg
   width="24"
   height="24"
   viewBox="0 0 24 24"
   class="global-nav__logo"
   version="1.1"
   id="svg8"
   sodipodi:docname="LinkedIn-edited-color.svg"
   inkscape:version="1.1.1 (3bf5ae0d25, 2021-09-20)"
   xmlns:inkscape="http://www.inkscape.org/namespaces/inkscape"
   xmlns:sodipodi="http://sodipodi.sourceforge.net/DTD/sodipodi-0.dtd"
   xmlns="http://www.w3.org/2000/svg"
   xmlns:svg="http://www.w3.org/2000/svg"
   xmlns:rdf="http://www.w3.org/1999/02/22-rdf-syntax-ns#"
   xmlns:cc="http://creativecommons.org/ns#"
   xmlns:dc="http://purl.org/dc/elements/1.1/">
  <defs
     id="defs12" />
  <sodipodi:namedview
     id="namedview10"
     pagecolor="#505050"
     bordercolor="#ffffff"
     borderopacity="1"
     inkscape:pageshadow="0"
     inkscape:pageopacity="0"
     inkscape:pagecheckerboard="1"
     showgrid="false"
     inkscape:zoom="21.147059"
     inkscape:cx="16.668985"
     inkscape:cy="17"
     inkscape:window-width="1920"
     inkscape:window-height="1017"
     inkscape:window-x="-8"
     inkscape:window-y="-8"
     inkscape:window-maximized="1"
     inkscape:current-layer="svg8"
     width="24px" />
  <title
     id="title2">LinkedIn</title>
  <g
     id="g6"
     style="fill:#0066b3;fill-opacity:1;stroke-width:1.7"
     transform="matrix(0.58823529,0,0,0.58823529,2,2)">
    <path
       d="m 34,2.5 v 29 A 2.5,2.5 0 0 1 31.5,34 H 2.5 A 2.5,2.5 0 0 1 0,31.5 V 2.5 A 2.5,2.5 0 0 1 2.5,0 h 29 A 2.5,2.5 0 0 1 34,2.5 Z M 10,13 H 5 v 16 h 5 z M 10.45,7.5 A 2.88,2.88 0 0 0 7.59,4.6 H 7.5 a 2.9,2.9 0 0 0 0,5.8 v 0 A 2.88,2.88 0 0 0 10.45,7.59 Z M 29,19.28 C 29,14.47 25.94,12.6 22.9,12.6 a 5.7,5.7 0 0 0 -5.06,2.58 H 17.7 V 13 H 13 v 16 h 5 v -8.51 a 3.32,3.32 0 0 1 3,-3.58 h 0.19 c 1.59,0 2.77,1 2.77,3.52 V 29 h 5 z"
       fill="#000000"
       id="path4"
       style="fill:#0066b3;fill-opacity:1;stroke-width:1.7" />
  </g>
  <metadata
     id="metadata829">
    <rdf:RDF>
      <cc:Work
         rdf:about="">
        <dc:title>LinkedIn</dc:title>
      </cc:Work>
    </rdf:RDF>
  </metadata>
</svg>
